<?xml version="1.0" encoding="UTF-8" standalone="no"?>
<svg width="404px" height="92px" viewBox="0 0 404 92" version="1.1" xmlns="http://www.w3.org/2000/svg" xmlns:xlink="http://www.w3.org/1999/xlink">
    <!-- Generator: Sketch 3.6.1 (26313) - http://www.bohemiancoding.com/sketch -->
    <title>md-logo</title>
    <desc>Created with Sketch.</desc>
    <defs/>
    <g id="Page-1" stroke="none" stroke-width="1" fill="none" fill-rule="evenodd">
        <g id="Group">
            <path d="M145.22,40.249 L136.748,40.249 L136.748,23.974 L129.106,33.397 L128.437,33.397 L120.775,23.974 L120.775,40.249 L112.546,40.249 L112.546,12.156 L120.229,12.156 L128.863,22.696 L137.538,12.156 L145.22,12.156 L145.22,40.249" id="Fill-1" fill="#008296"/>
            <path d="M174.735,26.183 C174.735,25.128 174.579,24.165 174.269,23.294 C173.958,22.423 173.488,21.666 172.86,21.024 C172.231,20.382 171.464,19.882 170.56,19.524 C169.654,19.166 168.606,18.987 167.417,18.987 C165.147,18.987 163.364,19.649 162.067,20.974 C160.77,22.298 160.121,24.034 160.121,26.183 C160.121,28.331 160.772,30.071 162.077,31.401 C163.381,32.733 165.161,33.397 167.417,33.397 C168.972,33.397 170.296,33.091 171.391,32.476 C172.485,31.861 173.316,31.01 173.883,29.922 C174.451,28.835 174.735,27.588 174.735,26.183 L174.735,26.183 Z M183.37,26.183 C183.37,28.804 182.765,31.216 181.555,33.419 C180.346,35.621 178.545,37.37 176.154,38.668 C173.762,39.966 170.85,40.614 167.417,40.614 C163.945,40.614 161.006,39.939 158.601,38.587 C156.195,37.235 154.408,35.459 153.24,33.257 C152.071,31.054 151.486,28.696 151.486,26.183 C151.486,23.655 152.067,21.294 153.229,19.099 C154.392,16.903 156.179,15.133 158.59,13.788 C161.002,12.443 163.945,11.771 167.417,11.771 C170.012,11.771 172.326,12.156 174.36,12.927 C176.394,13.696 178.065,14.741 179.376,16.058 C180.687,17.376 181.68,18.909 182.356,20.659 C183.031,22.409 183.37,24.25 183.37,26.183 L183.37,26.183 Z" id="Fill-2" fill="#008296"/>
            <path d="M210.979,40.249 L189.635,40.249 L189.635,12.156 L198.108,12.156 L198.108,33.52 L210.979,33.52 L210.979,40.249" id="Fill-3" fill="#008296"/>
            <path d="M238.124,40.249 L216.942,40.249 L216.942,12.156 L237.778,12.156 L237.778,17.791 L225.415,17.791 L225.415,22.939 L237.211,22.939 L237.211,28.595 L225.415,28.595 L225.415,34.594 L238.124,34.594 L238.124,40.249" id="Fill-4" fill="#008296"/>
            <path d="M269.991,38.142 C268.829,38.749 267.639,39.235 266.422,39.601 C265.208,39.966 263.981,40.226 262.745,40.381 C261.508,40.536 260.227,40.614 258.903,40.614 C256.458,40.614 254.264,40.276 252.327,39.601 C250.387,38.925 248.704,37.929 247.278,36.61 C245.852,35.294 244.786,33.753 244.077,31.989 C243.368,30.226 243.012,28.29 243.012,26.183 C243.012,23.764 243.43,21.646 244.268,19.828 C245.106,18.011 246.278,16.501 247.786,15.298 C249.292,14.095 251.008,13.207 252.934,12.632 C254.86,12.058 256.889,11.771 259.024,11.771 C262.213,11.771 265.829,12.48 269.868,13.899 L269.868,21.358 C268.477,20.493 267.102,19.774 265.745,19.2 C264.385,18.626 262.788,18.339 260.95,18.339 C259.315,18.339 257.788,18.663 256.37,19.312 C254.95,19.96 253.809,20.886 252.944,22.088 C252.079,23.291 251.647,24.696 251.647,26.304 C251.647,27.723 252.024,29.023 252.782,30.206 C253.538,31.388 254.588,32.327 255.934,33.022 C257.278,33.72 258.795,34.067 260.485,34.067 C261.848,34.067 263.139,33.901 264.356,33.57 C265.571,33.239 266.594,32.871 267.426,32.466 C268.256,32.061 269.112,31.581 269.991,31.026 L269.991,38.142" id="Fill-5" fill="#008296"/>
            <path d="M305.95,27.662 C305.95,30.067 305.5,32.118 304.602,33.813 C303.704,35.51 302.514,36.851 301.036,37.837 C299.555,38.823 297.961,39.532 296.252,39.966 C294.542,40.397 292.836,40.614 291.133,40.614 C288.756,40.614 286.442,40.208 284.192,39.397 C281.942,38.587 280.059,37.208 278.547,35.263 C277.034,33.317 276.276,30.783 276.276,27.662 L276.276,12.156 L284.729,12.156 L284.729,25.474 C284.729,27.324 284.995,28.854 285.53,30.063 C286.063,31.273 286.807,32.159 287.758,32.72 C288.711,33.28 289.836,33.56 291.133,33.56 C292.377,33.56 293.479,33.284 294.438,32.729 C295.397,32.175 296.143,31.297 296.678,30.095 C297.211,28.892 297.479,27.364 297.479,25.514 L297.479,12.156 L305.95,12.156 L305.95,27.662" id="Fill-6" fill="#008296"/>
            <path d="M334.938,40.249 L313.594,40.249 L313.594,12.156 L322.067,12.156 L322.067,33.52 L334.938,33.52 L334.938,40.249" id="Fill-7" fill="#008296"/>
            <path d="M358.838,29.669 L354.725,19.413 L350.569,29.669 L358.838,29.669 L358.838,29.669 Z M371.75,40.249 L363.075,40.249 L360.786,34.554 L348.583,34.554 L346.252,40.249 L337.577,40.249 L350.002,12.156 L359.366,12.156 L371.75,40.249 L371.75,40.249 Z" id="Fill-8" fill="#008296"/>
            <path d="M392.165,21.034 C392.165,19.737 391.739,18.831 390.887,18.317 C390.036,17.805 388.651,17.548 386.733,17.548 L384.948,17.548 L384.948,24.317 L386.772,24.317 C388.84,24.317 390.256,24.091 391.018,23.639 C391.782,23.187 392.165,22.317 392.165,21.034 L392.165,21.034 Z M403.676,40.249 L394.577,40.249 L392.368,35.263 C391.557,33.438 390.827,32.105 390.178,31.26 C389.53,30.415 388.897,29.875 388.282,29.638 C387.668,29.401 386.874,29.284 385.901,29.284 L384.948,29.284 L384.948,40.249 L376.475,40.249 L376.475,12.156 L390.887,12.156 C393.211,12.156 395.116,12.63 396.604,13.575 C398.09,14.521 399.161,15.67 399.815,17.021 C400.471,18.372 400.799,19.655 400.799,20.872 C400.799,22.29 400.526,23.49 399.977,24.47 C399.43,25.45 398.852,26.162 398.245,26.608 C397.637,27.054 396.954,27.479 396.198,27.885 C397.102,28.412 397.85,29.037 398.438,29.76 C399.026,30.483 399.827,31.946 400.838,34.147 L403.676,40.249 L403.676,40.249 Z" id="Fill-9" fill="#008296"/>
            <path d="M0,12.141 L0,69.377 C0,81.873 10.128,92 22.623,92 L81.428,92 C93.921,92 104.049,81.873 104.049,69.377 L104.049,12.141 L0,12.141" id="Fill-11" fill="#5F696C"/>
            <path d="M91.836,40.369 C91.836,62.262 74.09,80.012 52.199,80.012 C30.307,80.012 12.56,62.262 12.56,40.369 C12.56,18.475 30.307,0.732 52.199,0.732 C74.09,0.732 91.836,18.475 91.836,40.369" id="Fill-13" fill="#FFFFFF"/>
            <path d="M77.682,14.811 C63.631,0.752 40.847,0.756 26.795,14.811 C12.746,28.854 12.746,51.639 26.795,65.693 C40.847,79.74 63.638,79.74 77.682,65.693 C91.731,51.639 91.731,28.854 77.682,14.811" id="Fill-14" fill="#008296"/>
            <path d="M64.582,18.184 C59.578,18.184 55.525,22.242 55.525,27.246 C55.525,32.24 59.577,36.299 64.582,36.299 C69.582,36.299 73.633,32.246 73.633,27.246 C73.633,22.242 69.582,18.184 64.582,18.184" id="Fill-15" fill="#FFFFFF"/>
            <path d="M41.99,68.506 L26.377,52.902 C25.314,51.838 25.314,50.109 26.377,49.039 C27.445,47.98 29.164,47.98 30.23,49.039 L43.914,62.725 C44.984,63.787 46.71,63.787 47.775,62.725 C48.84,61.654 48.84,59.928 47.775,58.867 L34.09,45.186 C33.027,44.117 33.027,42.395 34.09,41.332 C35.157,40.264 36.883,40.264 37.949,41.332 L51.633,55.004 C52.697,56.07 54.42,56.07 55.488,55.004 C56.553,53.947 56.553,52.217 55.488,51.152 L39.854,35.525" id="Stroke-16" stroke="#FFFFFF" stroke-width="3.756" stroke-linecap="round"/>
            <path d="M115.743,49.823 L115.743,85.931 L127.42,85.931 C132.776,85.931 137.236,84.284 140.803,80.99 C144.37,77.697 146.153,73.331 146.153,67.892 C146.153,62.571 144.394,58.229 140.877,54.867 C137.359,51.505 132.805,49.823 127.213,49.823 L115.743,49.823 L115.743,49.823 Z M112.538,47.153 L127.035,47.153 C134.367,47.153 139.965,49.081 143.829,52.938 C147.692,56.796 149.625,61.78 149.625,67.892 C149.625,73.885 147.712,78.835 143.888,82.741 C140.063,86.647 134.634,88.601 127.598,88.601 L112.538,88.601 L112.538,47.153 L112.538,47.153 Z" id="Fill-17" fill="#5F696C"/>
            <path d="M192.579,47.153 L192.579,49.823 L173.175,49.823 L173.175,66.408 L192.075,66.408 L192.075,69.108 L173.175,69.108 L173.175,85.931 L193.053,85.931 L193.053,88.601 L169.971,88.601 L169.971,47.153 L192.579,47.153" id="Fill-18" fill="#5F696C"/>
            <path d="M225.848,89.016 L224.903,89.016 L207.465,47.153 L210.713,47.153 L225.401,82.222 L239.983,47.153 L243.217,47.153 L225.848,89.016 Z" id="Fill-19" fill="#5F696C"/>
            <path d="M260.538,88.6 L263.743,88.6 L263.743,47.153 L260.538,47.153 L260.538,88.6 Z" id="Fill-20" fill="#5F696C"/>
            <path d="M320.137,50.091 L320.137,53.591 C315.112,50.921 310.188,49.586 305.362,49.586 C300.219,49.586 295.917,51.337 292.456,54.838 C288.995,58.338 287.264,62.71 287.264,67.951 C287.264,73.252 289.004,77.613 292.485,81.035 C295.965,84.457 300.407,86.168 305.807,86.168 C310.317,86.168 315.231,84.754 320.551,81.925 L320.551,85.248 C315.647,87.84 310.75,89.135 305.866,89.135 C299.555,89.135 294.299,87.112 290.096,83.067 C285.893,79.022 283.792,73.984 283.792,67.951 C283.792,61.879 285.938,56.806 290.231,52.731 C294.522,48.657 299.635,46.619 305.569,46.619 C310.237,46.619 315.092,47.776 320.137,50.091" id="Fill-21" fill="#5F696C"/>
            <path d="M361.875,47.153 L361.875,49.823 L342.473,49.823 L342.473,66.408 L361.372,66.408 L361.372,69.108 L342.473,69.108 L342.473,85.931 L362.35,85.931 L362.35,88.601 L339.268,88.601 L339.268,47.153 L361.875,47.153" id="Fill-22" fill="#5F696C"/>
            <path d="M400.883,49.229 L400.883,52.761 C397.284,50.645 394.188,49.586 391.598,49.586 C389.106,49.586 387.024,50.343 385.352,51.856 C383.68,53.368 382.844,55.243 382.844,57.478 C382.844,59.08 383.338,60.524 384.329,61.809 C385.317,63.096 387.385,64.331 390.53,65.519 C393.674,66.705 395.969,67.694 397.413,68.485 C398.856,69.276 400.083,70.424 401.092,71.927 C402.1,73.43 402.604,75.379 402.604,77.772 C402.604,80.956 401.438,83.646 399.104,85.842 C396.77,88.037 393.92,89.135 390.559,89.135 C387.118,89.135 383.577,87.929 379.938,85.515 L379.938,81.747 C383.952,84.694 387.434,86.168 390.381,86.168 C392.833,86.168 394.905,85.372 396.596,83.779 C398.288,82.188 399.133,80.233 399.133,77.919 C399.133,76.158 398.61,74.571 397.561,73.156 C396.512,71.742 394.387,70.42 391.184,69.19 C387.981,67.961 385.692,66.97 384.317,66.219 C382.942,65.468 381.774,64.396 380.813,63.002 C379.854,61.608 379.374,59.814 379.374,57.62 C379.374,54.576 380.542,51.981 382.875,49.837 C385.208,47.692 388.018,46.619 391.301,46.619 C394.524,46.619 397.719,47.489 400.883,49.229" id="Fill-23" fill="#5F696C"/>
        </g>
    </g>
</svg>