<svg xmlns="http://www.w3.org/2000/svg" xmlns:xlink="http://www.w3.org/1999/xlink" viewBox="0 0 161 40.12"><defs><style>.cls-1{fill:none;stroke-miterlimit:10;stroke-width:2px;stroke:url(#linear-gradient);}.cls-2{fill:url(#linear-gradient-2);}.cls-3{fill:#6eb43f;}.cls-4{fill:#fff;}</style><linearGradient id="linear-gradient" y1="20.06" x2="161" y2="20.06" gradientUnits="userSpaceOnUse"><stop offset="0" stop-color="#62af49"/><stop offset="1" stop-color="#018da8"/></linearGradient><linearGradient id="linear-gradient-2" x1="-0.52" y1="20.06" x2="41.87" y2="20.06" gradientTransform="matrix(1, 0, 0, -1, 0.52, 40.12)" xlink:href="#linear-gradient"/></defs><g id="Layer_2" data-name="Layer 2"><g id="youtube"><rect class="cls-1" x="1" y="1.06" width="159" height="38" rx="6"/><rect class="cls-2" x="0.01" width="42.38" height="40.12" rx="7" transform="translate(42.39 40.12) rotate(-180)"/><path class="cls-3" d="M65.39,23.9l1.17-1.66a4.4,4.4,0,0,0,3.18,1.36c1.18,0,1.74-.52,1.74-1.11,0-1.74-5.76-.52-5.76-4.29,0-1.66,1.44-3,3.79-3a5.59,5.59,0,0,1,3.9,1.39l-1.18,1.59a4.29,4.29,0,0,0-2.91-1.09c-.9,0-1.41.39-1.41,1,0,1.57,5.74.51,5.74,4.24,0,1.83-1.32,3.21-4,3.21A5.74,5.74,0,0,1,65.39,23.9Z"/><path class="cls-3" d="M79.92,25.31V24.4a3.43,3.43,0,0,1-2.55,1.09A2.07,2.07,0,0,1,75,23.21V18.07h1.91v4.39c0,1,.52,1.34,1.33,1.34A2.13,2.13,0,0,0,79.92,23v-4.9h1.91v7.24Z"/><path class="cls-3" d="M83.72,25.31v-10h1.9V19a2.75,2.75,0,0,1,2.24-1.11c1.84,0,3.21,1.44,3.21,3.79s-1.38,3.81-3.21,3.81a2.82,2.82,0,0,1-2.24-1.11v.93Zm3.55-1.51a1.89,1.89,0,0,0,1.83-2.12,1.88,1.88,0,0,0-1.83-2.1,2.13,2.13,0,0,0-1.65.84V23A2.17,2.17,0,0,0,87.27,23.8Z"/><path class="cls-3" d="M91.88,24.37,92.7,23a4.12,4.12,0,0,0,2.51,1c.82,0,1.21-.31,1.21-.76,0-1.19-4.29-.21-4.29-3.06,0-1.22,1.05-2.28,3-2.28a4.61,4.61,0,0,1,2.91,1l-.76,1.35a3.14,3.14,0,0,0-2.15-.84c-.69,0-1.14.3-1.14.7,0,1.07,4.31.17,4.31,3.09,0,1.34-1.14,2.31-3.15,2.31A4.89,4.89,0,0,1,91.88,24.37Z"/><path class="cls-3" d="M99.2,21.68A3.68,3.68,0,0,1,103,17.89a3.37,3.37,0,0,1,2.86,1.3l-1.24,1.17a1.76,1.76,0,0,0-1.53-.78,1.94,1.94,0,0,0-2,2.1,2,2,0,0,0,2,2.12,1.8,1.8,0,0,0,1.53-.8l1.24,1.17A3.37,3.37,0,0,1,103,25.49,3.68,3.68,0,0,1,99.2,21.68Z"/><path class="cls-3" d="M107.15,25.31V18.07h1.9v1a3.18,3.18,0,0,1,2.31-1.15v1.86a2.34,2.34,0,0,0-.52-.05,2.43,2.43,0,0,0-1.79.83v4.78Z"/><path class="cls-3" d="M112.37,16.15a1.13,1.13,0,1,1,2.26,0,1.13,1.13,0,1,1-2.26,0Zm.18,9.16V18.07h1.9v7.24Z"/><path class="cls-3" d="M116.34,25.31v-10h1.91V19a2.75,2.75,0,0,1,2.23-1.11c1.85,0,3.21,1.44,3.21,3.79s-1.38,3.81-3.21,3.81a2.8,2.8,0,0,1-2.23-1.11v.93Zm3.56-1.51a1.89,1.89,0,0,0,1.83-2.12,1.88,1.88,0,0,0-1.83-2.1,2.13,2.13,0,0,0-1.65.84V23A2.17,2.17,0,0,0,119.9,23.8Z"/><path class="cls-3" d="M124.67,21.68a3.69,3.69,0,0,1,3.75-3.79c2.17,0,3.63,1.62,3.63,4v.45h-5.39a2,2,0,0,0,2.09,1.62,3,3,0,0,0,1.92-.7l.85,1.26a4.51,4.51,0,0,1-3,1A3.66,3.66,0,0,1,124.67,21.68Zm3.75-2.23A1.66,1.66,0,0,0,126.65,21h3.57A1.66,1.66,0,0,0,128.42,19.45Z"/><path class="cls-4" d="M30.7,17.41A4.45,4.45,0,0,0,26.25,13H14.86a4.45,4.45,0,0,0-4.45,4.45v5.3a4.45,4.45,0,0,0,4.45,4.45H26.25a4.45,4.45,0,0,0,4.45-4.45ZM24,20.46,18.9,23c-.2.11-.88,0-.88-.26V17.53c0-.23.69-.37.89-.26l4.88,2.66C24,20.05,24.22,20.35,24,20.46Z"/></g></g></svg>