<?xml version="1.0" encoding="UTF-8"?>
<svg id="Layer_1" xmlns="http://www.w3.org/2000/svg" version="1.1" xmlns:xlink="http://www.w3.org/1999/xlink" viewBox="0 0 161 40.1">
  <!-- Generator: Adobe Illustrator 29.1.0, SVG Export Plug-In . SVG Version: 2.1.0 Build 142)  -->
  <defs>
    <style>
      .st0 {
        fill: #fff;
      }

      .st1 {
        fill: url(#linear-gradient1);
      }

      .st2 {
        fill: none;
        stroke: url(#linear-gradient);
        stroke-miterlimit: 10;
        stroke-width: 2px;
      }

      .st3 {
        fill: #6eb43f;
      }
    </style>
    <linearGradient id="linear-gradient" x1="0" y1="21.9" x2="161" y2="21.9" gradientTransform="translate(0 42) scale(1 -1)" gradientUnits="userSpaceOnUse">
      <stop offset="0" stop-color="#62af49"/>
      <stop offset="1" stop-color="#018da8"/>
    </linearGradient>
    <linearGradient id="linear-gradient1" x1="-338.5" y1="21.9" x2="-296.1" y2="21.9" gradientTransform="translate(-296.1 42) rotate(-180)" gradientUnits="userSpaceOnUse">
      <stop offset="0" stop-color="#62af49"/>
      <stop offset="1" stop-color="#018da8"/>
    </linearGradient>
  </defs>
  <rect class="st2" x="1" y="1.1" width="159" height="38" rx="6" ry="6"/>
  <rect class="st1" y="0" width="42.4" height="40.1" rx="7" ry="7"/>
  <path class="st3" d="M69.7,25.3v-5.6h-1.2v-1.7h1.2v-.3c-.1-1.3.8-2.5,2.1-2.6.1,0,.2,0,.4,0,.7,0,1.4.2,1.9.7l-.7,1.1c-.2-.2-.5-.3-.8-.3-.5,0-.9.3-.9,1v.3h1.5v1.7h-1.5v5.6h-1.9Z"/>
  <path class="st3" d="M73.7,21.7c0-2.1,1.7-3.8,3.8-3.8,2.1,0,3.8,1.7,3.8,3.8,0,2.1-1.7,3.8-3.8,3.8s-3.8-1.7-3.8-3.8ZM79.4,21.7c.1-1-.6-1.9-1.7-2-1-.1-1.9.6-2,1.7,0,.1,0,.3,0,.4-.2,1,.6,2,1.6,2.1,1,.2,2-.6,2.1-1.6,0-.2,0-.4,0-.5Z"/>
  <path class="st3" d="M82.8,25.3v-10h1.9v10h-1.9Z"/>
  <path class="st3" d="M86.6,25.3v-10h1.9v10h-1.9Z"/>
  <path class="st3" d="M89.9,21.7c.1-2.1,1.9-3.7,4-3.6,2,.1,3.5,1.7,3.6,3.6-.1,2.1-1.9,3.7-4,3.6-2-.1-3.5-1.7-3.6-3.6ZM95.6,21.7c.1-1-.6-2-1.6-2.1-1-.1-2,.6-2.1,1.6,0,.2,0,.3,0,.5-.1,1,.6,2,1.6,2.1,1,.1,2-.6,2.1-1.6,0-.2,0-.3,0-.5Z"/>
  <path class="st3" d="M105.3,25.3l-1.5-4.9-1.5,4.9h-2l-2.3-7.2h2l1.3,4.9,1.7-4.9h1.7l1.6,4.9,1.3-4.9h2l-2.2,7.2h-2.1Z"/>
  <path class="st3" d="M119.3,25.3v-.9c-.7.7-1.6,1.1-2.6,1.1-1.1.2-2.2-.6-2.3-1.8,0-.2,0-.3,0-.5v-5.1h1.9v4.4c-.1.6.3,1.2,1,1.3.1,0,.2,0,.4,0,.6,0,1.3-.3,1.7-.8v-4.9h1.9v7.2h-1.9Z"/>
  <path class="st3" d="M122.4,24.4l.8-1.4c.7.6,1.6,1,2.5,1,.8,0,1.2-.3,1.2-.8,0-1.2-4.3-.2-4.3-3.1s1-2.3,3-2.3c1.1,0,2.1.3,2.9,1l-.8,1.4c-.6-.5-1.3-.8-2.1-.8-.7,0-1.1.3-1.1.7,0,1.1,4.3.2,4.3,3.1s-1.1,2.3-3.2,2.3c-1.2,0-2.4-.4-3.3-1.1Z"/>
  <g id="content">
    <g id="layer1">
      <path id="path1009" class="st0" d="M12.1,11.8l7,9.4-7.1,7.6h1.6l6.2-6.7,5,6.7h5.4l-7.4-9.9,6.6-7.1h-1.6l-5.7,6.2-4.6-6.2h-5.4ZM14.5,13h2.5l11,14.7h-2.5l-11-14.7h0Z"/>
    </g>
  </g>
</svg>