<svg xmlns="http://www.w3.org/2000/svg" xmlns:xlink="http://www.w3.org/1999/xlink" viewBox="0 0 161 40.12"><defs><style>.cls-1{fill:none;stroke-miterlimit:10;stroke-width:2px;stroke:url(#linear-gradient);}.cls-2{fill:url(#linear-gradient-2);}.cls-3{fill:#fff;}.cls-4{fill:#6eb43f;}</style><linearGradient id="linear-gradient" y1="20.06" x2="161" y2="20.06" gradientUnits="userSpaceOnUse"><stop offset="0" stop-color="#62af49"/><stop offset="1" stop-color="#018da8"/></linearGradient><linearGradient id="linear-gradient-2" x1="-0.52" y1="20.06" x2="41.87" y2="20.06" gradientTransform="matrix(1, 0, 0, -1, 0.52, 40.12)" xlink:href="#linear-gradient"/></defs><g id="Layer_2" data-name="Layer 2"><g id="twitter"><rect class="cls-1" x="1" y="1.06" width="159" height="38" rx="6"/><rect class="cls-2" x="0.01" width="42.38" height="40.12" rx="7" transform="translate(42.39 40.12) rotate(-180)"/><path class="cls-3" d="M30.59,13.73a8.59,8.59,0,0,1-2.05.59c.33-.06.81-.65,1-.9a3.8,3.8,0,0,0,.68-1.23s0-.08,0-.11a.11.11,0,0,0-.11,0,10.91,10.91,0,0,1-2.42.93.18.18,0,0,1-.17,0l-.21-.21a4.16,4.16,0,0,0-3-1,4.14,4.14,0,0,0-1.71.48,4.54,4.54,0,0,0-1.38,1.12,4.13,4.13,0,0,0-.86,3.4c0,.09,0,.11-.09.09A12.89,12.89,0,0,1,12,12.6c-.1-.11-.15-.11-.23,0a4.23,4.23,0,0,0,.72,5,5.47,5.47,0,0,0,.51.45,4,4,0,0,1-1.6-.45c-.1-.06-.15,0-.16.09a2.53,2.53,0,0,0,0,.47,4.29,4.29,0,0,0,2.63,3.41,2.49,2.49,0,0,0,.53.16,4.79,4.79,0,0,1-1.57.05c-.12,0-.16,0-.12.15A4.43,4.43,0,0,0,16,24.7c.15,0,.3,0,.45.06,0,0,0,0,0,0A5.2,5.2,0,0,1,14.18,26a8.19,8.19,0,0,1-3.44.44c-.18,0-.22,0-.27,0s0,.08,0,.12a6.52,6.52,0,0,0,.72.43,11.08,11.08,0,0,0,2.29.92,12.24,12.24,0,0,0,11.88-2.78C27.85,22.7,28.7,19.37,28.7,16c0-.14.15-.21.25-.28a7.78,7.78,0,0,0,1.61-1.68.49.49,0,0,0,.11-.32v0C30.67,13.68,30.67,13.7,30.59,13.73Z"/><path class="cls-4" d="M69.67,25.31V19.73h-1.2V18.07h1.2v-.3a2.35,2.35,0,0,1,2.43-2.61,2.49,2.49,0,0,1,1.89.69L73.27,17a1.1,1.1,0,0,0-.79-.28c-.54,0-.9.34-.9,1.05v.3h1.47v1.66H71.58v5.58Z"/><path class="cls-4" d="M73.68,21.68a3.83,3.83,0,0,1,7.66,0,3.83,3.83,0,0,1-7.66,0Zm5.68,0a1.86,1.86,0,1,0-3.7,0,1.87,1.87,0,1,0,3.7,0Z"/><path class="cls-4" d="M82.77,25.31v-10h1.9v10Z"/><path class="cls-4" d="M86.56,25.31v-10h1.91v10Z"/><path class="cls-4" d="M89.89,21.68a3.84,3.84,0,0,1,7.67,0,3.84,3.84,0,0,1-7.67,0Zm5.69,0a1.87,1.87,0,1,0-3.71,0,1.87,1.87,0,1,0,3.71,0Z"/><path class="cls-4" d="M105.34,25.31l-1.53-4.93-1.53,4.93h-2L98,18.07h2l1.35,4.87L103,18.07h1.69l1.59,4.87,1.35-4.87h2l-2.2,7.24Z"/><path class="cls-4" d="M119.28,25.31V24.4a3.46,3.46,0,0,1-2.55,1.09,2.07,2.07,0,0,1-2.34-2.28V18.07h1.9v4.39a1.17,1.17,0,0,0,1.34,1.34,2.14,2.14,0,0,0,1.65-.83v-4.9h1.9v7.24Z"/><path class="cls-4" d="M122.44,24.37l.83-1.38a4.09,4.09,0,0,0,2.5,1c.82,0,1.22-.31,1.22-.76,0-1.19-4.29-.21-4.29-3.06,0-1.22,1-2.28,3-2.28a4.63,4.63,0,0,1,2.91,1l-.77,1.35a3.11,3.11,0,0,0-2.14-.84c-.69,0-1.14.3-1.14.7,0,1.07,4.3.17,4.3,3.09,0,1.34-1.14,2.31-3.15,2.31A4.91,4.91,0,0,1,122.44,24.37Z"/></g></g></svg>