<svg xmlns="http://www.w3.org/2000/svg" xmlns:xlink="http://www.w3.org/1999/xlink" viewBox="0 0 161 40.12"><defs><style>.cls-1{fill:none;stroke-miterlimit:10;stroke-width:2px;stroke:url(#linear-gradient);}.cls-2{fill:url(#linear-gradient-2);}.cls-3{fill:#6eb43f;}.cls-4{fill:#fff;}</style><linearGradient id="linear-gradient" y1="20.06" x2="161" y2="20.06" gradientUnits="userSpaceOnUse"><stop offset="0" stop-color="#62af49"/><stop offset="1" stop-color="#018da8"/></linearGradient><linearGradient id="linear-gradient-2" x1="-0.52" y1="20.06" x2="41.87" y2="20.06" gradientTransform="matrix(1, 0, 0, -1, 0.52, 40.12)" xlink:href="#linear-gradient"/></defs><g id="Layer_2" data-name="Layer 2"><g id="linkedin"><rect class="cls-1" x="1" y="1.06" width="159" height="38" rx="6"/><rect class="cls-2" x="0.01" width="42.38" height="40.12" rx="7" transform="translate(42.39 40.12) rotate(-180)"/><path class="cls-3" d="M69.67,25.31V19.73h-1.2V18.07h1.2v-.3a2.35,2.35,0,0,1,2.43-2.61,2.49,2.49,0,0,1,1.89.69L73.27,17a1.1,1.1,0,0,0-.79-.28c-.54,0-.9.34-.9,1.05v.3h1.47v1.66H71.58v5.58Z"/><path class="cls-3" d="M73.68,21.68a3.83,3.83,0,0,1,7.66,0,3.83,3.83,0,0,1-7.66,0Zm5.68,0a1.86,1.86,0,1,0-3.7,0,1.87,1.87,0,1,0,3.7,0Z"/><path class="cls-3" d="M82.77,25.31v-10h1.9v10Z"/><path class="cls-3" d="M86.56,25.31v-10h1.91v10Z"/><path class="cls-3" d="M89.89,21.68a3.84,3.84,0,0,1,7.67,0,3.84,3.84,0,0,1-7.67,0Zm5.69,0a1.87,1.87,0,1,0-3.71,0,1.87,1.87,0,1,0,3.71,0Z"/><path class="cls-3" d="M105.34,25.31l-1.53-4.93-1.53,4.93h-2L98,18.07h2l1.35,4.87L103,18.07h1.69l1.59,4.87,1.35-4.87h2l-2.2,7.24Z"/><path class="cls-3" d="M119.28,25.31V24.4a3.46,3.46,0,0,1-2.55,1.09,2.07,2.07,0,0,1-2.34-2.28V18.07h1.9v4.39a1.17,1.17,0,0,0,1.34,1.34,2.14,2.14,0,0,0,1.65-.83v-4.9h1.9v7.24Z"/><path class="cls-3" d="M122.44,24.37l.83-1.38a4.09,4.09,0,0,0,2.5,1c.82,0,1.22-.31,1.22-.76,0-1.19-4.29-.21-4.29-3.06,0-1.22,1-2.28,3-2.28a4.63,4.63,0,0,1,2.91,1l-.77,1.35a3.11,3.11,0,0,0-2.14-.84c-.69,0-1.14.3-1.14.7,0,1.07,4.3.17,4.3,3.09,0,1.34-1.14,2.31-3.15,2.31A4.91,4.91,0,0,1,122.44,24.37Z"/><path class="cls-4" d="M10.53,16.61h3.59V28.14H10.53Zm1.8-5.74A2.08,2.08,0,1,1,10.25,13a2.08,2.08,0,0,1,2.08-2.08"/><path class="cls-4" d="M16.37,16.61h3.44v1.58h.05a3.77,3.77,0,0,1,3.4-1.87c3.63,0,4.3,2.39,4.3,5.5v6.32H24v-5.6c0-1.34,0-3.06-1.86-3.06S20,20.93,20,22.44v5.7H16.37Z"/></g></g></svg>