<?xml version="1.0" encoding="utf-8"?>
<!-- Generator: Adobe Illustrator 27.3.0, SVG Export Plug-In . SVG Version: 6.00 Build 0)  -->
<svg version="1.1" id="Layer_1" xmlns="http://www.w3.org/2000/svg" xmlns:xlink="http://www.w3.org/1999/xlink" x="0px" y="0px"
	 viewBox="0 0 1964.35 2395.87" style="enable-background:new 0 0 1964.35 2395.87;" xml:space="preserve">
<style type="text/css">
	.st0{display:none;opacity:0.25;stroke:#FFFFFF;stroke-width:0.8383;stroke-miterlimit:10;}
	.st1{fill:#CFD1D2;}
	.st2{fill:#5B6670;}
	.st3{fill:#BABCBE;}
	.st4{fill:#FFFFFF;}
	.st5{fill:#00758D;}
	.st6{fill:none;stroke:#FFFFFF;stroke-width:0.7278;stroke-linecap:round;}
	.st7{fill:#00788B;stroke:#FFFFFF;stroke-width:1.0916;stroke-miterlimit:10;}
	.st8{fill:#6A757D;}
	.st9{fill:#E6E7E8;}
	.st10{fill:none;stroke:#FFFFFF;stroke-width:0.2945;stroke-linecap:round;}
	.st11{display:none;}
	.st12{display:inline;fill:#FFFFFF;}
	.st13{display:inline;}
	.st14{display:inline;fill:#231F20;}
</style>
<g>
	<rect x="409.18" y="480.55" class="st0" width="355.4" height="114"/>
	<g>
		<g>
			<g>
				<g>
					<polygon class="st1" points="1049.01,812.33 837.41,1299.74 1224.35,1433.57 					"/>
					<path class="st2" d="M1063.96,983.4c8.97-2.74,53.92,0,53.92,0l34.94,214.69h-121.95L1063.96,983.4z"/>
					<g>
						<path class="st3" d="M1570.42,2085.22v-575.99c0-125.76-101.93-227.67-227.65-227.67H750.96
							c-125.69,0-227.63,101.91-227.63,227.67v575.99H1570.42"/>
						<path class="st4" d="M1447.53,1565.63c0,220.32-178.61,398.94-398.9,398.94c-220.3,0-398.9-178.61-398.9-398.94
							s178.59-398.88,398.9-398.88C1268.92,1166.76,1447.53,1345.31,1447.53,1565.63"/>
						<path class="st5" d="M1305.1,1308.42c-141.42-141.47-370.71-141.43-512.13,0c-141.38,141.33-141.38,370.62,0,512.06
							c141.42,141.35,370.77,141.35,512.13,0C1446.45,1679.04,1446.45,1449.75,1305.1,1308.42"/>
						<path class="st6" d="M945.9,1848.79l-157.14-157.03c-10.69-10.71-10.69-28.11,0-38.88c10.76-10.66,28.08-10.66,38.79,0
							l137.7,137.73c10.76,10.69,28.12,10.69,38.86,0c10.71-10.78,10.71-28.15,0-38.82l-69.17-69.15l-68.56-68.54
							c-10.69-10.75-10.69-28.08,0-38.77c10.73-10.76,28.1-10.76,38.84,0l137.7,137.58c10.71,10.73,28.06,10.73,38.79,0
							c10.74-10.64,10.74-28.05,0-38.76l-157.34-157.26"/>
						<path class="st4" d="M1173.25,1342.38c-50.35,0-91.15,40.84-91.15,91.19c0,50.28,40.78,91.1,91.15,91.1
							c50.33,0,91.09-40.77,91.09-91.1C1264.34,1383.21,1223.58,1342.38,1173.25,1342.38"/>
					</g>
					<path d="M1415.65,371.92l67.02-20.48l-3.27-10.72c-71.51-234.04-320.1-366.27-554.14-294.76S558.99,366.07,630.5,600.11
						l3.27,10.71l67.02-20.48l-3.27-10.71c-60.22-197.09,51.13-406.42,248.22-466.64s406.42,51.13,466.64,248.22L1415.65,371.92
						l-183.18,55.97"/>
					<polygon class="st3" points="359.98,633.27 523.83,1021.93 1788.04,975.71 1648.22,148.87 					"/>
					<g>
						<path d="M215.36,535.6c-85.54,3.09-154.17,73.58-154.17,159.86c0,86.27,68.63,156.78,154.17,159.86V535.6z"/>
						<path d="M660.53,903.81H475.22v67.86h-77.41c-30.1,0-54.57-24.48-54.57-54.57v-60.01h95.77v-480.9H247.47v480.9h25.69v60.01
							c0,68.73,55.92,124.64,124.64,124.64h77.41v75.41h185.31c58.83,0,106.68-47.85,106.68-106.68
							C767.21,951.66,719.36,903.81,660.53,903.81z"/>
					</g>
					<path d="M1738.39,453.08l56.37,314.71c83.65-18.12,138.78-99.62,123.57-184.54C1903.11,498.33,1823.13,441.04,1738.39,453.08z"
						/>
					<path d="M1274.23,371.71c0,0,70.89-47.32,175.64-36.84c104.75,10.49,158.66,93.03,158.66,93.03s147.72-133.97,130.45-154.63
						c-17.27-20.65-145.46,73.96-145.46,73.96l-12.89-10.26l105.47-139.37c0,0,15.48-14.6-3.56-28.2
						c-32.53-23.25-61.05,8.31-61.05,8.31l-114.17,132.96c0,0-31.85-7.26-29.06-16.47c2.79-9.22,67.91-112.27,67.91-112.27
						s14-25.67-3.95-35.61c-30.01-16.63-50.36,15.04-50.36,15.04l-77.33,133L1274.23,371.71z"/>
					<path d="M1145.68,852.74c-2.22-3.94-18.26-31.42-50.44-36.65c-35.72-5.8-73.08,18.78-74.62,41.07
						c-2.19,31.74,129.91,68.09,129.91,68.09s115.39-40.09,94.82-73.52C1188.19,808.2,1187.99,833.35,1145.68,852.74z"/>
					<path d="M860.57,233.88c0,0-78.15,16.13-176.11,54.67c-97.96,38.54-130.36,90.21-130.36,90.21s-178.55-88.82-167.54-113.38
						c11.01-24.57,160.08,31.67,160.08,31.67l9.62-13.37L416.91,178.18c0,0-18.86-9.84-4.23-28.11
						c24.99-31.21,61.02-8.58,61.02-8.58l145.99,96.95c0,0,28.68-15.63,23.49-23.75c-5.19-8.11-95.85-89.61-95.85-89.61
						s-20.45-20.9-5.87-35.35c24.37-24.15,52.55,0.8,52.55,0.8l110.55,107L860.57,233.88z"/>
					<g>
						<circle class="st7" cx="1411.95" cy="570.06" r="224.23"/>
						<path class="st4" d="M1474.8,575.28c-53.77-33.36-124.4-16.79-157.76,36.97c-33.32,53.69-16.82,124.31,36.97,157.68
							c53.74,33.35,124.29,16.82,157.64-36.92C1545.01,679.25,1528.54,608.63,1474.8,575.28"/>
					</g>
					<g>
						<circle class="st7" cx="803.69" cy="550.59" r="298.3"/>
						<path class="st4" d="M804.98,445.14c-64.53,7.93-110.39,66.69-102.47,131.22c11.13,90.63,122.72,144.6,209.79,63.67
							c2.03-1.88,3.8-4.15,5.14-6.57C975,529.51,895.77,433.99,804.98,445.14"/>
					</g>
				</g>
				<g>
					<ellipse class="st8" cx="514.21" cy="1797.37" rx="28.02" ry="258.06"/>
					<path class="st9" d="M506.69,1799.83c0,100.44,1.86,181.87-12.39,181.87s-25.81-81.42-25.81-181.87
						c0-100.44,11.55-181.87,25.81-181.87S506.69,1699.38,506.69,1799.83z"/>
				</g>
			</g>
			<g>
				<ellipse class="st8" cx="1575.62" cy="1797.37" rx="30.35" ry="258.06"/>
				<path class="st9" d="M1582.64,1794.91c0-100.44-0.9-181.87,14.54-181.87s27.96,81.42,27.96,181.87
					c0,100.44-12.52,181.87-27.96,181.87S1582.64,1895.35,1582.64,1794.91z"/>
			</g>
		</g>
		<g>
			<g id="CMQ05F.tif_2_">
				<g>
					<g>
						<path d="M1047.98,1476.22c206.23,0,412.48,1.2,618.69-0.62c77.47-0.69,127.08,52.02,128.37,109.81
							c0.64,28.62-6.86,57.54-11.73,86.14c-30.76,180.96-61.93,361.85-92.7,542.81c-11.01,64.73-56.55,104.73-122.06,104.75
							c-348.07,0.14-696.15,0.1-1044.22-0.12c-59.25-0.04-106.33-39.24-116.33-97.2c-32.24-186.92-63.99-373.93-95.79-560.93
							c-4.22-24.84-11.24-49.9-10.66-74.71c1.46-62.52,52.89-109.29,118.53-109.55c144.9-0.58,289.8-0.27,434.7-0.31
							c64.4-0.02,128.8,0,193.2,0C1047.98,1476.27,1047.98,1476.25,1047.98,1476.22z"/>
						<path d="M1048.35,2337.84c184.81,0,369.62,0,554.43,0.01c6.9,0,15.5-2.44,20.33,0.75c8.57,5.67,19.38,14.11,20.66,22.68
							c1.01,6.8-9.45,17.63-17.37,22.71c-6.21,3.98-16.31,2.44-24.69,2.44c-371.15,0.12-742.31,0.15-1113.46,0.18
							c-2.3,0-4.6,0.03-6.9-0.06c-16.56-0.63-29.78-7.5-29.27-25.32c0.5-17.54,13.1-23.66,30.32-23.58
							c79.75,0.37,159.5,0.07,239.26,0.05c108.89-0.02,217.78-0.01,326.68-0.01C1048.35,2337.75,1048.35,2337.79,1048.35,2337.84z"
							/>
					</g>
				</g>
			</g>
			<g>
				<path class="st4" d="M1213.74,1932.94c0,87.02-74.08,157.56-165.44,157.56c-91.37,0-165.44-70.54-165.44-157.56
					c0-87.02,74.07-157.53,165.44-157.53C1139.66,1775.41,1213.74,1845.93,1213.74,1932.94"/>
				<path class="st5" d="M1154.67,1831.36c-58.65-55.87-153.75-55.86-212.4,0c-58.64,55.82-58.64,146.37,0,202.23
					c58.65,55.83,153.78,55.83,212.4,0C1213.3,1977.73,1213.3,1887.18,1154.67,1831.36"/>
				<path class="st10" d="M1005.7,2044.78l-65.18-62.02c-4.43-4.23-4.43-11.1,0-15.36c4.46-4.21,11.65-4.21,16.09,0l57.11,54.39
					c4.46,4.22,11.66,4.22,16.12,0c4.44-4.26,4.44-11.12,0-15.33l-28.69-27.31l-28.44-27.07c-4.43-4.24-4.43-11.09,0-15.31
					c4.45-4.25,11.66-4.25,16.11,0l57.11,54.34c4.44,4.24,11.64,4.24,16.09,0c4.45-4.2,4.45-11.08,0-15.31l-65.26-62.11"/>
				<g>
					<path class="st4" d="M1099.99,1849.92c-20.88,0-37.81,16.13-37.81,36.01c0,19.86,16.91,35.98,37.81,35.98
						c20.87,0,37.78-16.1,37.78-35.98C1137.77,1866.05,1120.86,1849.92,1099.99,1849.92"/>
				</g>
			</g>
		</g>
		<g class="st11">
			<path class="st12" d="M503.87,555.78l3.12-5.17c1.76,1.56,5.51,3.12,8.3,3.12c2.25,0,3.17-0.73,3.17-1.81
				c0-3.07-13.71-0.05-13.71-9.52c0-4.15,3.56-7.76,10.1-7.76c3.95,0,7.32,1.27,9.86,3.12l-2.88,4.98c-1.42-1.37-4.1-2.59-6.93-2.59
				c-1.76,0-2.98,0.73-2.98,1.71c0,2.73,13.71,0.05,13.71,9.71c0,4.49-3.95,7.81-10.74,7.81
				C510.7,559.39,506.35,557.98,503.87,555.78z"/>
			<path class="st12" d="M537,556.03v12.55h-7.52v-33.34H537v2.73c1.85-2.25,4.29-3.32,6.98-3.32c5.91,0,10.35,4.39,10.35,12.35
				c0,8-4.44,12.4-10.35,12.4C541.35,559.39,538.96,558.37,537,556.03z M546.67,547c0-3.51-2.25-5.71-5.17-5.71
				c-1.61,0-3.56,0.88-4.49,2.15v7.17c0.93,1.22,2.88,2.15,4.49,2.15C544.42,552.76,546.67,550.56,546.67,547z"/>
			<path class="st12" d="M556.67,547c0-6.83,5.17-12.35,12.54-12.35c6.98,0,12.06,5.12,12.06,13.13v1.61h-16.79
				c0.44,2.2,2.49,4.2,5.91,4.2c1.66,0,4.54-0.73,5.86-2l3.17,4.69c-2.34,2.1-6.25,3.12-9.86,3.12
				C562.29,559.39,556.67,554.66,556.67,547z M569.22,540.46c-3.27,0-4.54,2.34-4.83,4.05h9.71
				C573.9,542.85,572.68,540.46,569.22,540.46z"/>
			<path class="st12" d="M583.42,547c0-7.37,5.52-12.35,12.89-12.35c5.08,0,8.25,2.25,9.66,4.34l-4.88,4.54
				c-0.93-1.37-2.44-2.25-4.44-2.25c-3.12,0-5.51,2.15-5.51,5.71c0,3.56,2.39,5.76,5.51,5.76c2,0,3.51-0.98,4.44-2.29l4.88,4.59
				c-1.42,2.05-4.59,4.34-9.66,4.34C588.93,559.39,583.42,554.42,583.42,547z"/>
			<path class="st12" d="M610.94,552.46v-10.69h-3.9v-6.54h3.9v-6.44h7.47v6.44h4.78v6.54h-4.78v8.59c0,1.37,0.78,2.39,2.1,2.39
				c0.83,0,1.66-0.29,1.9-0.59l1.46,5.66c-0.93,0.88-2.78,1.56-5.56,1.56C613.53,559.39,610.94,557,610.94,552.46z"/>
			<path class="st12" d="M626.95,558.81v-23.57h7.52v2.88c1.56-1.9,4.54-3.51,7.37-3.51v7.22c-0.44-0.1-1.07-0.2-1.85-0.2
				c-1.95,0-4.54,0.83-5.51,2.15v15.03H626.95z"/>
			<path class="st12" d="M659.16,558.81v-2.34c-1.46,1.76-4.29,2.93-7.32,2.93c-3.61,0-8.1-2.44-8.1-7.76c0-5.71,4.49-7.57,8.1-7.57
				c3.12,0,5.91,0.98,7.32,2.73v-2.83c0-2.05-1.76-3.42-4.78-3.42c-2.34,0-4.78,0.88-6.69,2.49l-2.68-4.73
				c3.03-2.59,7.08-3.66,10.69-3.66c5.66,0,10.98,2.1,10.98,9.42v14.74H659.16z M659.16,552.76v-2.1c-0.78-1.07-2.54-1.66-4.2-1.66
				c-2,0-3.76,0.88-3.76,2.73c0,1.85,1.76,2.73,3.76,2.73C656.63,554.47,658.38,553.88,659.16,552.76z"/>
			<path class="st13" d="M688.11,558.81v-13.62c0-2.88-1.51-3.9-3.86-3.9c-2.25,0-3.71,1.22-4.59,2.29v15.23h-7.52v-23.57h7.52v2.88
				c1.42-1.66,4.2-3.47,8.15-3.47c5.37,0,7.81,3.12,7.81,7.47v16.69H688.11z"/>
			<path class="st13" d="M699.53,547c0-6.83,5.17-12.35,12.54-12.35c6.98,0,12.06,5.12,12.06,13.13v1.61h-16.79
				c0.44,2.2,2.49,4.2,5.91,4.2c1.66,0,4.54-0.73,5.86-2l3.17,4.69c-2.34,2.1-6.25,3.12-9.86,3.12
				C705.14,559.39,699.53,554.66,699.53,547z M712.07,540.46c-3.27,0-4.54,2.34-4.83,4.05h9.71
				C716.76,542.85,715.54,540.46,712.07,540.46z"/>
			<path class="st13" d="M729.4,552.46v-10.69h-3.9v-6.54h3.9v-6.44h7.47v6.44h4.78v6.54h-4.78v8.59c0,1.37,0.78,2.39,2.1,2.39
				c0.83,0,1.66-0.29,1.9-0.59l1.46,5.66c-0.93,0.88-2.78,1.56-5.56,1.56C731.98,559.39,729.4,557,729.4,552.46z"/>
		</g>
		<g class="st11">
			<path class="st14" d="M555.56,568.61c1.57,0,2.46,0.62,3.19,1.53l-0.67,0.6c-0.65-0.9-1.47-1.25-2.46-1.25
				c-2.11,0-3.39,1.68-3.39,3.84c0,2.16,1.29,3.86,3.39,3.86c0.99,0,1.81-0.37,2.46-1.27l0.67,0.6c-0.73,0.93-1.62,1.55-3.19,1.55
				c-2.65,0-4.38-2.11-4.38-4.74C551.18,570.7,552.91,568.61,555.56,568.61z"/>
			<path class="st14" d="M567.08,577.84v-1.32c-0.75,0.82-1.94,1.55-3.24,1.55c-1.85,0-2.83-0.86-2.83-2.89v-6.34h0.97v6.12
				c0,1.75,0.88,2.24,2.18,2.24c1.16,0,2.33-0.69,2.93-1.49v-6.86h0.97v9.01H567.08z"/>
			<path class="st14" d="M570.96,575.92c0.58,0.73,1.64,1.32,2.91,1.32c1.51,0,2.41-0.75,2.41-1.79c0-1.16-1.23-1.49-2.52-1.83
				c-1.51-0.37-3.17-0.76-3.17-2.52c0-1.38,1.17-2.5,3.21-2.5c1.55,0,2.57,0.6,3.23,1.32l-0.54,0.69c-0.52-0.71-1.49-1.19-2.69-1.19
				c-1.4,0-2.26,0.69-2.26,1.62c0,1.03,1.16,1.31,2.41,1.62c1.55,0.39,3.28,0.82,3.28,2.74c0,1.45-1.12,2.65-3.38,2.65
				c-1.45,0-2.57-0.43-3.47-1.42L570.96,575.92z"/>
			<path class="st14" d="M580,576.11v-6.42h-1.49v-0.86H580v-2.46h0.99v2.46h1.83v0.86h-1.83v6.27c0,0.73,0.3,1.23,0.93,1.23
				c0.43,0,0.8-0.21,1.01-0.43l0.37,0.75c-0.35,0.33-0.78,0.56-1.53,0.56C580.57,578.06,580,577.34,580,576.11z"/>
			<path class="st14" d="M584.51,573.33c0-2.63,1.7-4.72,4.33-4.72c2.67,0,4.34,2.09,4.34,4.72c0,2.63-1.68,4.74-4.34,4.74
				C586.21,578.06,584.51,575.96,584.51,573.33z M592.13,573.33c0-2-1.17-3.84-3.3-3.84c-2.09,0-3.28,1.85-3.28,3.84
				c0,2.01,1.19,3.86,3.28,3.86C590.96,577.19,592.13,575.34,592.13,573.33z"/>
			<path class="st14" d="M606.49,577.84v-6.3c0-1.27-0.54-2.05-1.81-2.05c-0.97,0-2.07,0.71-2.57,1.53v6.82h-0.99v-6.3
				c0-1.27-0.52-2.05-1.81-2.05c-0.95,0-2.03,0.73-2.57,1.55v6.81h-0.97v-9.01h0.97v1.36c0.37-0.58,1.6-1.58,2.91-1.58
				c1.4,0,2.14,0.82,2.37,1.7c0.5-0.84,1.72-1.7,2.98-1.7c1.66,0,2.46,0.93,2.46,2.74v6.49H606.49z"/>
			<path class="st14" d="M614.39,568.61c2.74,0,4.25,2.18,4.25,4.77v0.26h-7.53c0.09,1.96,1.4,3.58,3.52,3.58
				c1.14,0,2.18-0.43,2.95-1.25l0.5,0.63c-0.89,0.93-2.03,1.45-3.52,1.45c-2.63,0-4.51-1.96-4.51-4.74
				C610.04,570.72,611.89,568.61,614.39,568.61z M611.11,572.88h6.54c-0.02-1.53-1.03-3.43-3.28-3.43
				C612.24,569.45,611.18,571.31,611.11,572.88z"/>
			<path class="st14" d="M621.23,577.84v-9.01h0.97v1.55c0.76-1.01,1.79-1.73,3.04-1.73v1.06c-0.17-0.04-0.3-0.04-0.49-0.04
				c-0.91,0-2.14,0.82-2.55,1.6v6.56H621.23z"/>
			<path class="st14" d="M636.01,568.61c1.57,0,2.46,0.62,3.19,1.53l-0.67,0.6c-0.65-0.9-1.47-1.25-2.46-1.25
				c-2.11,0-3.39,1.68-3.39,3.84c0,2.16,1.29,3.86,3.39,3.86c0.99,0,1.81-0.37,2.46-1.27l0.67,0.6c-0.73,0.93-1.62,1.55-3.19,1.55
				c-2.65,0-4.38-2.11-4.38-4.74C631.63,570.7,633.36,568.61,636.01,568.61z"/>
			<path class="st14" d="M647.18,577.84v-1.06c-0.8,0.88-1.81,1.29-3.06,1.29c-1.55,0-3.15-1.06-3.15-3c0-1.96,1.58-2.98,3.15-2.98
				c1.25,0,2.27,0.41,3.06,1.29v-1.83c0-1.34-1.08-2.07-2.42-2.07c-1.12,0-2,0.39-2.82,1.32l-0.54-0.67
				c0.93-1.01,1.98-1.51,3.47-1.51c1.83,0,3.28,0.88,3.28,2.89v6.34H647.18z M647.18,574.09c-0.63-0.82-1.64-1.25-2.72-1.25
				c-1.49,0-2.46,0.95-2.46,2.24c0,1.27,0.97,2.22,2.46,2.22c1.08,0,2.09-0.41,2.72-1.23V574.09z"/>
			<path class="st14" d="M651.26,577.84v-9.01h0.97v1.55c0.76-1.01,1.79-1.73,3.04-1.73v1.06c-0.17-0.04-0.3-0.04-0.49-0.04
				c-0.91,0-2.14,0.82-2.55,1.6v6.56H651.26z"/>
			<path class="st14" d="M661.08,568.61c2.74,0,4.25,2.18,4.25,4.77v0.26h-7.53c0.09,1.96,1.4,3.58,3.52,3.58
				c1.14,0,2.18-0.43,2.95-1.25l0.5,0.63c-0.89,0.93-2.03,1.45-3.52,1.45c-2.63,0-4.51-1.96-4.51-4.74
				C656.74,570.72,658.58,568.61,661.08,568.61z M657.8,572.88h6.54c-0.02-1.53-1.03-3.43-3.28-3.43
				C658.94,569.45,657.87,571.31,657.8,572.88z"/>
			<path class="st14" d="M673.81,581.27h-0.97v-12.44h0.97v1.42c0.63-0.91,1.79-1.64,3.13-1.64c2.41,0,4.03,1.83,4.03,4.72
				c0,2.87-1.62,4.74-4.03,4.74c-1.27,0-2.41-0.65-3.13-1.68V581.27z M676.77,569.49c-1.25,0-2.44,0.75-2.96,1.6v4.46
				c0.52,0.86,1.72,1.64,2.96,1.64c2.01,0,3.15-1.68,3.15-3.86S678.79,569.49,676.77,569.49z"/>
			<path class="st14" d="M683.04,573.33c0-2.63,1.7-4.72,4.33-4.72c2.67,0,4.34,2.09,4.34,4.72c0,2.63-1.68,4.74-4.34,4.74
				C684.73,578.06,683.04,575.96,683.04,573.33z M690.66,573.33c0-2-1.17-3.84-3.3-3.84c-2.09,0-3.28,1.85-3.28,3.84
				c0,2.01,1.19,3.86,3.28,3.86C689.49,577.19,690.66,575.34,690.66,573.33z"/>
			<path class="st14" d="M694.3,577.84v-9.01h0.97v1.55c0.76-1.01,1.79-1.73,3.04-1.73v1.06c-0.17-0.04-0.3-0.04-0.49-0.04
				c-0.91,0-2.14,0.82-2.55,1.6v6.56H694.3z"/>
			<path class="st14" d="M700.48,576.11v-6.42h-1.49v-0.86h1.49v-2.46h0.99v2.46h1.83v0.86h-1.83v6.27c0,0.73,0.3,1.23,0.93,1.23
				c0.43,0,0.8-0.21,1.01-0.43l0.37,0.75c-0.35,0.33-0.78,0.56-1.53,0.56C701.06,578.06,700.48,577.34,700.48,576.11z"/>
			<path class="st14" d="M711.24,577.84v-1.06c-0.8,0.88-1.81,1.29-3.06,1.29c-1.55,0-3.15-1.06-3.15-3c0-1.96,1.58-2.98,3.15-2.98
				c1.25,0,2.27,0.41,3.06,1.29v-1.83c0-1.34-1.08-2.07-2.42-2.07c-1.12,0-2,0.39-2.82,1.32l-0.54-0.67
				c0.93-1.01,1.98-1.51,3.47-1.51c1.83,0,3.28,0.88,3.28,2.89v6.34H711.24z M711.24,574.09c-0.63-0.82-1.64-1.25-2.72-1.25
				c-1.49,0-2.46,0.95-2.46,2.24c0,1.27,0.97,2.22,2.46,2.22c1.08,0,2.09-0.41,2.72-1.23V574.09z"/>
			<path class="st14" d="M715.32,577.84V565.4h0.97v12.44H715.32z"/>
		</g>
	</g>
</g>
</svg>
