<svg xmlns="http://www.w3.org/2000/svg" xmlns:xlink="http://www.w3.org/1999/xlink" viewBox="0 0 161 40">
   <defs>
      <style>.cls-1{fill:#6eb43f;}.cls-2{fill:none;stroke-miterlimit:10;stroke-width:2px;stroke:url(#linear-gradient);}</style>
      <linearGradient id="linear-gradient" y1="20" x2="161" y2="20" gradientUnits="userSpaceOnUse">
         <stop offset="0" stop-color="#62af49"/>
         <stop offset="1" stop-color="#018da8"/>
      </linearGradient>
   </defs>
   <g id="Layer_2" data-name="Layer 2">
      <g id="Layer_1-2" data-name="Layer 1">
         <path class="cls-1" d="M37.28,24.68l-3.86-10h2.42l2.77,7.68,2.78-7.68H43.8L40,24.68Z"/>
         <path class="cls-1" d="M44.51,15.51a1.13,1.13,0,0,1,2.26,0,1.13,1.13,0,1,1-2.26,0Zm.18,9.17V17.43h1.9v7.25Z"/>
         <path class="cls-1" d="M48,21.05a3.7,3.7,0,0,1,3.75-3.8c2.17,0,3.63,1.62,3.63,4v.45H50A2,2,0,0,0,52.1,23.3,3.06,3.06,0,0,0,54,22.59l.85,1.26a4.51,4.51,0,0,1-3,1A3.67,3.67,0,0,1,48,21.05Zm3.75-2.24A1.67,1.67,0,0,0,50,20.36h3.57A1.66,1.66,0,0,0,51.77,18.81Z"/>
         <path class="cls-1" d="M63.14,24.68l-1.53-4.94-1.53,4.94H58l-2.21-7.25h2l1.35,4.88,1.59-4.88h1.7L64,22.31l1.35-4.88h2l-2.2,7.25Z"/>
         <path class="cls-1" d="M76.53,24.68v-.77a3,3,0,0,1-2.29.95,2.4,2.4,0,0,1-2.51-2.4,2.3,2.3,0,0,1,2.51-2.34,3,3,0,0,1,2.29.88v-.91c0-.74-.63-1.22-1.59-1.22a3,3,0,0,0-2.08.86l-.75-1.34a4.68,4.68,0,0,1,3.16-1.14c1.67,0,3.18.66,3.18,2.75v4.68Zm0-1.74V22A1.9,1.9,0,0,0,75,21.39c-.75,0-1.36.41-1.36,1.1s.61,1.08,1.36,1.08A1.89,1.89,0,0,0,76.53,22.94Z"/>
         <path class="cls-1" d="M80.33,24.68v-10h1.9v10Z"/>
         <path class="cls-1" d="M84.12,24.68v-10H86v10Z"/>
         <path class="cls-1" d="M93.68,23.75v3.69H91.77v-10h1.91v.92a2.78,2.78,0,0,1,2.23-1.1c1.86,0,3.21,1.38,3.21,3.8s-1.35,3.81-3.21,3.81A2.79,2.79,0,0,1,93.68,23.75Zm3.48-2.7A1.89,1.89,0,0,0,95.31,19a2.1,2.1,0,0,0-1.63.82v2.55a2.12,2.12,0,0,0,1.63.84A1.89,1.89,0,0,0,97.16,21.05Z"/>
         <path class="cls-1" d="M100.05,21.05a3.84,3.84,0,0,1,7.67,0,3.84,3.84,0,0,1-7.67,0Zm5.69,0a1.87,1.87,0,1,0-3.71,0,1.87,1.87,0,1,0,3.71,0Z"/>
         <path class="cls-1" d="M108.51,23.73l.83-1.38a4.1,4.1,0,0,0,2.5,1c.83,0,1.22-.32,1.22-.77,0-1.18-4.29-.21-4.29-3.06,0-1.21,1-2.28,3-2.28a4.63,4.63,0,0,1,2.91,1l-.77,1.35a3.11,3.11,0,0,0-2.14-.84c-.69,0-1.14.3-1.14.71,0,1.06,4.3.16,4.3,3.09,0,1.33-1.14,2.31-3.15,2.31A4.86,4.86,0,0,1,108.51,23.73Z"/>
         <path class="cls-1" d="M116.69,22.86V19.1h-1.2V17.43h1.2v-2h1.9v2h1.47V19.1h-1.47v3.25c0,.47.24.81.66.81a.94.94,0,0,0,.66-.22l.41,1.45a2.34,2.34,0,0,1-1.59.47A1.8,1.8,0,0,1,116.69,22.86Z"/>
         <path class="cls-1" d="M120.74,23.73l.82-1.38a4.12,4.12,0,0,0,2.51,1c.82,0,1.21-.32,1.21-.77,0-1.18-4.29-.21-4.29-3.06,0-1.21,1.05-2.28,3-2.28a4.61,4.61,0,0,1,2.91,1l-.76,1.35a3.14,3.14,0,0,0-2.15-.84c-.69,0-1.14.3-1.14.71,0,1.06,4.31.16,4.31,3.09,0,1.33-1.14,2.31-3.15,2.31A4.84,4.84,0,0,1,120.74,23.73Z"/>
      </g>
      <g id="FB">
         <rect class="cls-2" x="1" y="1" width="159" height="38" rx="6"/>
      </g>
   </g>
</svg>