<svg id="Layer_1" data-name="Layer 1" xmlns="http://www.w3.org/2000/svg" viewBox="0 0 104 104"><defs><style>.cls-1{fill:#fff;stroke-width:2px;}.cls-1,.cls-2{stroke:#6cb33e;stroke-miterlimit:10;}.cls-2{fill:#6cb33e;}</style></defs><g id="Layer_2" data-name="Layer 2"><g id="GRAY"><circle class="cls-1" cx="52" cy="52" r="51"/></g></g><g id="Layer_2-2" data-name="Layer 2"><g id="Layer_1-2" data-name="Layer 1-2"><path class="cls-2" d="M78.47,50.74a18.05,18.05,0,0,1-18.56,4.31L33.05,81.91a8.06,8.06,0,1,1-11.4-11.4L48.53,43.63A18,18,0,0,1,70,20.28a1.51,1.51,0,0,1,1.12,1.82,1.58,1.58,0,0,1-.41.72l-9.36,9.37,1.42,8.58,8.55,1.42,9.37-9.36a1.5,1.5,0,0,1,2.53.69A18.1,18.1,0,0,1,78.47,50.74ZM30.37,76.21a3,3,0,1,0-3,3A3,3,0,0,0,30.37,76.21Z"/></g></g></svg>