<?xml version="1.0" encoding="utf-8"?>
<!-- Generator: Adobe Illustrator 26.2.1, SVG Export Plug-In . SVG Version: 6.00 Build 0)  -->
<svg version="1.1" id="图层_1" xmlns="http://www.w3.org/2000/svg" xmlns:xlink="http://www.w3.org/1999/xlink" x="0px" y="0px"
	 viewBox="0 0 651.97 170.08" style="enable-background:new 0 0 651.97 170.08;" xml:space="preserve">
<style type="text/css">
	.st0{fill:#008DA8;}
	.st1{fill:#6A737B;}
</style>
<polygon class="st0" points="238.78,71.96 225.7,71.96 225.7,46.82 213.89,61.38 212.86,61.38 201.02,46.82 201.02,71.96 
	188.31,71.96 188.31,28.56 200.18,28.56 213.51,44.85 226.92,28.56 238.78,28.56 "/>
<path class="st0" d="M297.72,50.23c0,4.05-0.93,7.78-2.8,11.18c-1.87,3.4-4.65,6.1-8.35,8.11c-3.7,2.01-8.19,3.01-13.5,3.01
	c-5.37,0-9.91-1.05-13.62-3.13c-3.71-2.09-6.48-4.83-8.28-8.24c-1.81-3.41-2.71-7.04-2.71-10.93c0-3.9,0.9-7.55,2.69-10.94
	c1.79-3.4,4.56-6.13,8.28-8.21c3.73-2.07,8.27-3.11,13.64-3.11c4.01,0,7.58,0.59,10.73,1.78c3.15,1.2,5.73,2.81,7.74,4.84
	c2.03,2.04,3.57,4.41,4.61,7.11C297.2,44.4,297.72,47.24,297.72,50.23 M284.38,50.23c0-1.63-0.24-3.12-0.72-4.46
	c-0.49-1.34-1.2-2.51-2.18-3.51c-0.97-1-2.15-1.76-3.55-2.32c-1.4-0.56-3.02-0.83-4.86-0.83c-3.51,0-6.26,1.02-8.26,3.07
	c-2.01,2.04-3,4.73-3,8.05c0,3.32,1,6.01,3.02,8.06c2.01,2.06,4.76,3.09,8.25,3.09c2.41,0,4.45-0.48,6.15-1.43
	c1.68-0.95,2.97-2.26,3.85-3.95C283.94,54.32,284.38,52.41,284.38,50.23"/>
<polygon class="st0" points="340.37,71.96 307.39,71.96 307.39,28.56 320.49,28.56 320.49,61.57 340.37,61.57 "/>
<polygon class="st0" points="382.31,71.96 349.58,71.96 349.58,28.56 381.77,28.56 381.77,37.27 362.67,37.27 362.67,45.22 
	380.9,45.22 380.9,53.96 362.67,53.96 362.67,63.23 382.31,63.23 "/>
<path class="st0" d="M431.54,68.71c-1.79,0.94-3.63,1.69-5.51,2.25c-1.88,0.56-3.78,0.97-5.68,1.2c-1.91,0.24-3.89,0.36-5.93,0.36
	c-3.78,0-7.17-0.53-10.16-1.57c-3-1.05-5.6-2.58-7.8-4.63c-2.2-2.03-3.85-4.41-4.94-7.13c-1.1-2.73-1.65-5.71-1.65-8.97
	c0-3.74,0.65-7,1.95-9.81c1.29-2.8,3.1-5.14,5.43-7c2.33-1.86,4.98-3.24,7.95-4.12c2.98-0.89,6.12-1.33,9.41-1.33
	c4.93,0,10.51,1.1,16.75,3.29v11.52c-2.15-1.34-4.27-2.45-6.37-3.34c-2.1-0.88-4.56-1.33-7.4-1.33c-2.52,0-4.89,0.5-7.07,1.51
	c-2.19,1-3.96,2.42-5.3,4.29c-1.34,1.86-2,4.03-2,6.51c0,2.2,0.59,4.21,1.75,6.03c1.17,1.82,2.79,3.28,4.86,4.35
	c2.08,1.07,4.42,1.61,7.03,1.61c2.1,0,4.1-0.25,5.98-0.76c1.88-0.52,3.45-1.08,4.74-1.71c1.28-0.63,2.6-1.37,3.96-2.22V68.71z"/>
<path class="st0" d="M487.09,52.52c0,3.71-0.7,6.89-2.08,9.5c-1.39,2.63-3.23,4.7-5.51,6.22c-2.29,1.52-4.75,2.62-7.38,3.29
	c-2.65,0.66-5.28,1-7.91,1c-3.67,0-7.24-0.63-10.73-1.88c-3.47-1.25-6.38-3.38-8.72-6.39c-2.34-3.01-3.51-6.92-3.51-11.74V28.57
	h13.06v20.57c0,2.86,0.41,5.22,1.24,7.09c0.83,1.87,1.98,3.24,3.44,4.11c1.47,0.86,3.21,1.3,5.21,1.3c1.92,0,3.62-0.42,5.1-1.28
	c1.48-0.86,2.64-2.22,3.47-4.07c0.82-1.86,1.24-4.22,1.24-7.08V28.57h13.09V52.52z"/>
<polygon class="st0" points="531.87,71.96 498.9,71.96 498.9,28.56 511.99,28.56 511.99,61.57 531.87,61.57 "/>
<path class="st0" d="M588.74,71.96h-13.4l-3.54-8.79h-18.86l-3.6,8.79h-13.4l19.19-43.4h14.46L588.74,71.96z M568.79,55.62
	l-6.35-15.84l-6.42,15.84H568.79z"/>
<path class="st0" d="M638.06,71.96h-14.05l-3.41-7.71c-1.26-2.81-2.39-4.87-3.39-6.18c-1-1.31-1.98-2.14-2.93-2.51
	c-0.95-0.36-2.18-0.55-3.68-0.55h-1.47v16.94h-13.09V28.57h22.26c3.59,0,6.53,0.73,8.83,2.19c2.3,1.47,3.95,3.24,4.96,5.33
	c1.01,2.08,1.51,4.07,1.51,5.95c0,2.19-0.42,4.05-1.27,5.56c-0.85,1.51-1.74,2.62-2.68,3.3c-0.94,0.69-1.99,1.34-3.16,1.97
	c1.4,0.82,2.55,1.78,3.45,2.9c0.92,1.12,2.15,3.37,3.71,6.77L638.06,71.96z M620.28,42.28c0-2.01-0.66-3.41-1.98-4.2
	c-1.31-0.79-3.45-1.18-6.42-1.18h-2.76v10.45h2.82c3.2,0,5.38-0.36,6.56-1.05C619.69,45.6,620.28,44.26,620.28,42.28"/>
<path class="st1" d="M138.06,28.54c11.27,11.1,18.26,26.53,18.26,43.61c0,33.82-27.41,61.24-61.23,61.24
	c-33.83,0-61.24-27.42-61.24-61.24c0-17.07,6.99-32.51,18.26-43.61H14.44v88.43c0,19.3,15.65,34.95,34.95,34.95h90.85
	c19.3,0,34.94-15.64,34.94-34.95V28.54H138.06z"/>
<path class="st0" d="M134.45,32.66c-21.71-21.71-56.9-21.71-78.61,0c-21.7,21.7-21.7,56.89,0,78.61c21.71,21.7,56.91,21.7,78.61,0
	C156.15,89.55,156.15,54.36,134.45,32.66z M102.21,96.82c-2.78,2.76-7.29,2.76-10.05,0L71.02,75.69c-0.51-0.51-1.35-0.51-1.86,0
	c-0.52,0.52-0.52,1.33,0,1.86L90.3,98.67c2.77,2.77,2.77,7.28,0,10.06c-2.78,2.77-7.29,2.77-10.07,0.01L59.09,87.59
	c-0.51-0.51-1.34-0.5-1.86,0.01c-0.5,0.5-0.5,1.35,0.01,1.86l24.12,24.1c1.13,1.13,1.13,2.97,0,4.1c-0.57,0.57-1.31,0.85-2.05,0.85
	s-1.48-0.28-2.05-0.85L53.14,93.56c-2.76-2.77-2.76-7.28-0.01-10.06c2.79-2.77,7.29-2.77,10.06-0.01l21.15,21.15
	c0.51,0.51,1.35,0.51,1.87,0c0.5-0.51,0.51-1.34,0-1.86L65.06,81.64c-2.77-2.78-2.77-7.29,0-10.05c2.77-2.77,7.28-2.77,10.06,0
	l21.15,21.13c0.52,0.52,1.33,0.52,1.86,0c0.33-0.33,0.38-0.72,0.38-0.92c0-0.2-0.05-0.6-0.38-0.93L73.95,66.71
	c-1.13-1.13-1.13-2.97,0-4.1c1.13-1.13,2.97-1.13,4.1,0l24.16,24.15c1.35,1.35,2.08,3.13,2.08,5.04
	C104.3,93.69,103.55,95.48,102.21,96.82z M114.21,65.87c-7.74,0-13.99-6.28-13.99-13.99c0-7.73,6.26-14,13.99-14
	c7.72,0,13.98,6.27,13.98,14C128.19,59.6,121.93,65.87,114.21,65.87z"/>
<path class="st1" d="M188.3,82.63h22.4c11.32,0,19.97,2.97,25.94,8.93c5.98,5.96,8.96,13.66,8.96,23.1c0,9.26-2.96,16.9-8.86,22.94
	c-5.91,6.03-14.3,9.05-25.17,9.05H188.3V82.63z M193.25,86.75v55.78h18.04c8.28,0,15.17-2.55,20.68-7.63
	c5.51-5.1,8.27-11.84,8.27-20.24c0-8.22-2.72-14.93-8.15-20.12c-5.44-5.2-12.47-7.79-21.11-7.79H193.25z"/>
<polygon class="st1" points="311.95,82.63 311.95,86.75 281.97,86.75 281.97,112.37 311.17,112.37 311.17,116.54 281.97,116.54 
	281.97,142.53 312.68,142.53 312.68,146.66 277.02,146.66 277.02,82.63 "/>
<polygon class="st1" points="390.18,82.63 363.34,147.3 361.88,147.3 334.94,82.63 339.96,82.63 362.66,136.8 385.18,82.63 "/>
<rect x="416.94" y="82.63" class="st1" width="4.95" height="64.03"/>
<path class="st1" d="M509.01,87.17v5.41c-7.76-4.12-15.37-6.18-22.82-6.18c-7.95,0-14.59,2.7-19.94,8.11
	c-5.35,5.41-8.02,12.17-8.02,20.26c0,8.19,2.69,14.93,8.06,20.21c5.38,5.29,12.25,7.93,20.59,7.93c6.96,0,14.55-2.19,22.78-6.56
	v5.13c-7.57,4.01-15.14,6.01-22.69,6.01c-9.75,0-17.88-3.13-24.36-9.38c-6.5-6.24-9.74-14.02-9.74-23.35
	c0-9.38,3.32-17.22,9.95-23.51c6.62-6.29,14.52-9.44,23.69-9.44C493.71,81.81,501.22,83.59,509.01,87.17"/>
<polygon class="st1" points="573.49,82.63 573.49,86.75 543.51,86.75 543.51,112.37 572.71,112.37 572.71,116.54 543.51,116.54 
	543.51,142.53 574.22,142.53 574.22,146.66 538.56,146.66 538.56,82.63 "/>
<path class="st1" d="M633.75,85.84v5.45c-5.56-3.27-10.35-4.9-14.35-4.9c-3.85,0-7.07,1.17-9.64,3.51
	c-2.59,2.34-3.88,5.24-3.88,8.69c0,2.48,0.76,4.71,2.29,6.69c1.53,1.99,4.72,3.9,9.57,5.74c4.86,1.83,8.41,3.36,10.64,4.58
	c2.22,1.22,4.12,3,5.68,5.32c1.56,2.32,2.33,5.34,2.33,9.03c0,4.93-1.8,9.07-5.4,12.47c-3.61,3.39-8.01,5.09-13.2,5.09
	c-5.31,0-10.78-1.86-16.41-5.59v-5.82c6.21,4.55,11.58,6.83,16.14,6.83c3.78,0,6.99-1.23,9.6-3.68c2.61-2.46,3.92-5.48,3.92-9.06
	c0-2.72-0.8-5.17-2.43-7.35c-1.62-2.19-4.9-4.22-9.85-6.13c-4.95-1.9-8.48-3.42-10.6-4.59c-2.13-1.16-3.94-2.82-5.42-4.97
	c-1.47-2.15-2.22-4.93-2.22-8.32c0-4.69,1.81-8.71,5.4-12.02c3.61-3.31,7.95-4.96,13.02-4.96
	C623.93,81.81,628.86,83.15,633.75,85.84"/>
</svg>
