<svg xmlns="http://www.w3.org/2000/svg" viewBox="0 0 312.69 87.11"><defs><style>.cls-1{fill:#cfd1d2;}.cls-2{fill:#5b6670;}.cls-3{fill:#babcbe;}.cls-4{fill:#fff;}.cls-5{fill:#00758d;}.cls-10,.cls-6{fill:none;stroke-linecap:round;}.cls-10,.cls-6,.cls-7{stroke:#fff;}.cls-6{stroke-width:0.73px;}.cls-7{fill:#00788b;stroke-miterlimit:10;stroke-width:1.09px;}.cls-8{fill:#6a757d;}.cls-9{fill:#e6e7e8;}.cls-10{stroke-width:0.29px;}.cls-11{fill:#231f20;}</style></defs><g id="Layer_2" data-name="Layer 2"><g id="spectranet"><polygon class="cls-1" points="35.02 27.86 27.52 45.14 41.24 49.88 35.02 27.86"/><path class="cls-2" d="M35.55,33.92a13.32,13.32,0,0,1,1.91,0l1.24,7.62H34.38Z"/><path class="cls-3" d="M53.51,73V52.57a8.07,8.07,0,0,0-8.07-8.07h-21a8.07,8.07,0,0,0-8.07,8.07V73H53.51"/><path class="cls-4" d="M49.15,54.57A14.14,14.14,0,1,1,35,40.43,14.14,14.14,0,0,1,49.15,54.57"/><path class="cls-5" d="M44.1,45.45a12.84,12.84,0,1,0,0,18.15,12.83,12.83,0,0,0,0-18.15"/><path class="cls-6" d="M31.37,64.61,25.8,59a1,1,0,0,1,0-1.38,1,1,0,0,1,1.37,0l4.88,4.88a1,1,0,0,0,1.38,0,1,1,0,0,0,0-1.37L31,58.72l-2.43-2.43a1,1,0,0,1,0-1.38,1,1,0,0,1,1.37,0l4.89,4.88a1,1,0,0,0,1.37,0,1,1,0,0,0,0-1.38L30.6,52.84"/><path class="cls-4" d="M39.43,46.65a3.23,3.23,0,1,0,3.23,3.23,3.23,3.23,0,0,0-3.23-3.23"/><path d="M48,12.24l2.38-.72-.12-.38a15.74,15.74,0,0,0-30.1,9.2l.12.37L22.68,20l-.12-.38a13.25,13.25,0,0,1,25.35-7.75l.11.38-6.49,2"/><polygon class="cls-3" points="10.59 21.51 16.4 35.29 61.23 33.65 56.27 4.34 10.59 21.51"/><path d="M5.47,18.05a5.67,5.67,0,0,0,0,11.33Z"/><path d="M21.25,31.1H14.68v2.41H11.93A1.94,1.94,0,0,1,10,31.57V29.45h3.4v-17H6.6v17h.92v2.12A4.42,4.42,0,0,0,11.93,36h2.75v2.68h6.57a3.79,3.79,0,0,0,0-7.57Z"/><path d="M59.46,15.12l2,11.16a5.67,5.67,0,0,0-2-11.16Z"/><path d="M43,12.24a10.15,10.15,0,0,1,6.22-1.31,8.1,8.1,0,0,1,5.63,3.3s5.24-4.75,4.63-5.48-5.16,2.62-5.16,2.62L53.87,11l3.74-4.95a.61.61,0,0,0-.13-1,1.66,1.66,0,0,0-2.16.3l-4,4.71s-1.13-.25-1-.58,2.41-4,2.41-4,.49-.91-.14-1.26a1.38,1.38,0,0,0-1.79.53L48,9.49Z"/><path d="M38.45,29.29A2.68,2.68,0,0,0,36.66,28c-1.26-.2-2.59.67-2.64,1.46-.08,1.12,4.6,2.41,4.6,2.41s4.09-1.42,3.36-2.6C40,27.71,40,28.6,38.45,29.29Z"/><path d="M28.34,7.35A41.93,41.93,0,0,0,22.1,9.29c-3.48,1.37-4.62,3.2-4.62,3.2s-6.33-3.15-5.94-4,5.67,1.12,5.67,1.12l.34-.47L12.61,5.38a.61.61,0,0,1-.15-1,1.65,1.65,0,0,1,2.16-.31L19.8,7.51s1-.55.83-.84-3.39-3.18-3.39-3.18-.73-.74-.21-1.25a1.37,1.37,0,0,1,1.86,0l3.92,3.79Z"/><circle class="cls-7" cx="47.89" cy="19.27" r="7.95"/><path class="cls-4" d="M50.12,19.45a4.06,4.06,0,1,0,1.3,5.6,4.06,4.06,0,0,0-1.3-5.6"/><circle class="cls-7" cx="26.32" cy="18.58" r="10.58"/><path class="cls-4" d="M26.37,14.84a4.17,4.17,0,0,0-3.63,4.65c.39,3.22,4.35,5.13,7.44,2.26a1.3,1.3,0,0,0,.18-.23c2-3.69-.77-7.07-4-6.68"/><ellipse class="cls-8" cx="16.06" cy="62.78" rx="0.99" ry="9.15"/><path class="cls-9" d="M15.79,62.87c0,3.56.07,6.45-.43,6.45s-.92-2.89-.92-6.45.41-6.45.92-6.45S15.79,59.31,15.79,62.87Z"/><ellipse class="cls-8" cx="53.69" cy="62.78" rx="1.08" ry="9.15"/><path class="cls-9" d="M53.94,62.7c0-3.57,0-6.45.52-6.45s1,2.88,1,6.45-.44,6.44-1,6.44S53.94,66.26,53.94,62.7Z"/><g id="CMQ05F.tif"><path d="M35,51.4c7.31,0,14.62,0,21.93,0,2.75,0,4.51,1.84,4.55,3.89a16,16,0,0,1-.41,3c-1.09,6.42-2.2,12.83-3.29,19.25a4.17,4.17,0,0,1-4.33,3.71q-18.51,0-37,0a4.07,4.07,0,0,1-4.12-3.45C11.15,71.2,10,64.57,8.9,57.94a14.23,14.23,0,0,1-.38-2.65,4,4,0,0,1,4.2-3.88c5.14,0,10.28,0,15.42,0Z"/><path d="M35,82H54.66c.24,0,.55-.09.72,0s.68.5.73.81-.34.62-.62.8a1.75,1.75,0,0,1-.87.09H15.14a1.92,1.92,0,0,1-.24,0c-.59,0-1.06-.26-1-.9s.46-.83,1.07-.83c2.83,0,5.66,0,8.49,0H35Z"/></g><path class="cls-4" d="M40.86,67.59A5.87,5.87,0,1,1,35,62a5.73,5.73,0,0,1,5.86,5.59"/><path class="cls-5" d="M38.77,64a5.52,5.52,0,0,0-7.53,0,4.9,4.9,0,0,0,0,7.17,5.52,5.52,0,0,0,7.53,0,4.9,4.9,0,0,0,0-7.17"/><path class="cls-10" d="M33.49,71.55l-2.31-2.19a.38.38,0,0,1,0-.55.42.42,0,0,1,.57,0l2,1.93a.42.42,0,0,0,.57,0,.36.36,0,0,0,0-.54l-1-1-1-1a.36.36,0,0,1,0-.54.42.42,0,0,1,.57,0l2,1.92a.42.42,0,0,0,.57,0,.36.36,0,0,0,0-.54l-2.31-2.2"/><path class="cls-4" d="M36.83,64.65a1.28,1.28,0,1,0,1.34,1.27,1.31,1.31,0,0,0-1.34-1.27"/><path class="cls-4" d="M74.23,61.62l3.12-5.17a14.73,14.73,0,0,0,8.3,3.12c2.25,0,3.17-.73,3.17-1.81,0-3.07-13.71,0-13.71-9.51,0-4.15,3.56-7.76,10.1-7.76a16.62,16.62,0,0,1,9.86,3.12l-2.88,5A10.51,10.51,0,0,0,85.26,46c-1.76,0-3,.73-3,1.71,0,2.73,13.72,0,13.72,9.71,0,4.49-4,7.81-10.74,7.81C81.06,65.23,76.72,63.82,74.23,61.62Z"/><path class="cls-4" d="M107.37,61.86V74.41H99.85V41.07h7.52v2.74a8.77,8.77,0,0,1,7-3.32c5.9,0,10.35,4.39,10.35,12.35s-4.45,12.39-10.35,12.39A8.73,8.73,0,0,1,107.37,61.86Zm9.66-9c0-3.52-2.24-5.72-5.17-5.72a6,6,0,0,0-4.49,2.15v7.18a6.18,6.18,0,0,0,4.49,2.14C114.79,58.59,117,56.4,117,52.84Z"/><path class="cls-4" d="M127,52.84a12.16,12.16,0,0,1,12.54-12.35c7,0,12.06,5.12,12.06,13.13v1.61H134.85c.44,2.19,2.49,4.19,5.9,4.19,1.66,0,4.54-.73,5.86-2l3.17,4.69c-2.34,2.1-6.25,3.12-9.86,3.12C132.65,65.23,127,60.5,127,52.84Zm12.54-6.54a4.65,4.65,0,0,0-4.83,4.05h9.71A4.52,4.52,0,0,0,139.58,46.3Z"/><path class="cls-4" d="M153.78,52.84c0-7.37,5.52-12.35,12.89-12.35,5.07,0,8.25,2.24,9.66,4.34l-4.88,4.54A5.15,5.15,0,0,0,167,47.12a5.34,5.34,0,0,0-5.52,5.72A5.37,5.37,0,0,0,167,58.59a5.3,5.3,0,0,0,4.44-2.29l4.88,4.59c-1.41,2-4.59,4.34-9.66,4.34C159.3,65.23,153.78,60.25,153.78,52.84Z"/><path class="cls-4" d="M181.31,58.3V47.61h-3.9V41.07h3.9V34.63h7.47v6.44h4.78v6.54h-4.78V56.2a2.13,2.13,0,0,0,2.1,2.39,2.92,2.92,0,0,0,1.9-.58l1.46,5.66c-.92.88-2.78,1.56-5.56,1.56C183.9,65.23,181.31,62.84,181.31,58.3Z"/><path class="cls-4" d="M197.32,64.65V41.07h7.51V44a10.26,10.26,0,0,1,7.37-3.51v7.22a8.47,8.47,0,0,0-1.85-.19c-1.95,0-4.54.83-5.52,2.14v15Z"/><path class="cls-4" d="M229.53,64.65V62.3a9.71,9.71,0,0,1-7.32,2.93c-3.61,0-8.1-2.44-8.1-7.76,0-5.71,4.49-7.56,8.1-7.56,3.12,0,5.9,1,7.32,2.73V49.81c0-2.05-1.76-3.42-4.78-3.42a10.51,10.51,0,0,0-6.69,2.49l-2.68-4.73a16.57,16.57,0,0,1,10.68-3.66c5.67,0,11,2.1,11,9.42V64.65Zm0-6.06V56.5a5.35,5.35,0,0,0-4.2-1.66c-2,0-3.76.87-3.76,2.73s1.76,2.73,3.76,2.73A5.21,5.21,0,0,0,229.53,58.59Z"/><path d="M258.47,64.65V51c0-2.88-1.51-3.91-3.85-3.91a5.83,5.83,0,0,0-4.59,2.3V64.65h-7.52V41.07H250V44a10.65,10.65,0,0,1,8.15-3.46c5.37,0,7.81,3.12,7.81,7.46v16.7Z"/><path d="M269.89,52.84a12.17,12.17,0,0,1,12.55-12.35c7,0,12.05,5.12,12.05,13.13v1.61H277.7c.44,2.19,2.49,4.19,5.91,4.19,1.66,0,4.54-.73,5.85-2l3.18,4.69c-2.35,2.1-6.25,3.12-9.86,3.12C275.5,65.23,269.89,60.5,269.89,52.84Zm12.55-6.54a4.67,4.67,0,0,0-4.84,4.05h9.72A4.54,4.54,0,0,0,282.44,46.3Z"/><path d="M299.76,58.3V47.61h-3.9V41.07h3.9V34.63h7.47v6.44H312v6.54h-4.78V56.2a2.13,2.13,0,0,0,2.1,2.39,2.92,2.92,0,0,0,1.9-.58l1.46,5.66c-.92.88-2.78,1.56-5.56,1.56C302.35,65.23,299.76,62.84,299.76,58.3Z"/><path class="cls-11" d="M121.56,79.17a4.4,4.4,0,0,1,4.37-4.72A3.72,3.72,0,0,1,129.12,76l-.68.59A2.85,2.85,0,0,0,126,75.33c-2.1,0-3.39,1.67-3.39,3.84S123.88,83,126,83a2.87,2.87,0,0,0,2.46-1.27l.68.59a3.68,3.68,0,0,1-3.19,1.55C123.28,83.9,121.56,81.8,121.56,79.17Z"/><path class="cls-11" d="M137.45,83.68V82.35a4.51,4.51,0,0,1-3.25,1.55c-1.83,0-2.83-.86-2.83-2.89V74.67h1v6.12c0,1.75.87,2.24,2.18,2.24a3.88,3.88,0,0,0,2.93-1.5V74.67h1v9Z"/><path class="cls-11" d="M140.74,82.47l.58-.71a3.74,3.74,0,0,0,2.91,1.32c1.51,0,2.41-.78,2.41-1.83,0-2.46-5.69-1.06-5.69-4.3,0-1.38,1.17-2.5,3.21-2.5a4.16,4.16,0,0,1,3.22,1.32l-.54.69a3.27,3.27,0,0,0-2.68-1.19c-1.4,0-2.24.71-2.24,1.64,0,2.26,5.67.88,5.67,4.34,0,1.46-1.12,2.65-3.38,2.65A4.35,4.35,0,0,1,140.74,82.47Z"/><path class="cls-11" d="M150.36,81.94V75.53h-1.49v-.86h1.49V72.21h1v2.46h1.83v.86h-1.83V81.8c0,.72.3,1.23.93,1.23a1.44,1.44,0,0,0,1-.43l.37.74a2,2,0,0,1-1.53.56C150.94,83.9,150.36,83.18,150.36,81.94Z"/><path class="cls-11" d="M154.89,79.17c0-2.63,1.68-4.72,4.31-4.72s4.34,2.09,4.34,4.72-1.67,4.73-4.34,4.73S154.89,81.8,154.89,79.17Zm7.61,0c0-2-1.18-3.84-3.3-3.84s-3.28,1.84-3.28,3.84S157.11,83,159.2,83,162.5,81.18,162.5,79.17Z"/><path class="cls-11" d="M176.85,83.68v-6.3c0-1.27-.54-2-1.81-2a3.35,3.35,0,0,0-2.57,1.52v6.83h-1v-6.3c0-1.27-.52-2-1.79-2a3.45,3.45,0,0,0-2.59,1.54v6.81h-1v-9h1V76A4,4,0,0,1,170,74.45a2.27,2.27,0,0,1,2.37,1.7,3.73,3.73,0,0,1,3-1.7c1.66,0,2.46.93,2.46,2.74v6.49Z"/><path class="cls-11" d="M180.43,79.17a4.46,4.46,0,0,1,4.32-4.72c2.75,0,4.26,2.16,4.26,4.77v.26h-7.54A3.52,3.52,0,0,0,185,83.06a4,4,0,0,0,2.94-1.25l.51.64a4.67,4.67,0,0,1-3.53,1.45A4.43,4.43,0,0,1,180.43,79.17Zm4.31-3.88a3.39,3.39,0,0,0-3.27,3.43H188A3.3,3.3,0,0,0,184.74,75.29Z"/><path class="cls-11" d="M191.59,83.68v-9h1v1.55a3.86,3.86,0,0,1,3-1.73v1.06a1.91,1.91,0,0,0-.48,0,3.42,3.42,0,0,0-2.56,1.61v6.56Z"/><path class="cls-11" d="M202,79.17a4.4,4.4,0,0,1,4.37-4.72A3.68,3.68,0,0,1,209.56,76l-.67.59a2.85,2.85,0,0,0-2.46-1.24c-2.11,0-3.39,1.67-3.39,3.84S204.32,83,206.43,83a2.87,2.87,0,0,0,2.46-1.27l.67.59a3.65,3.65,0,0,1-3.18,1.55C203.73,83.9,202,81.8,202,79.17Z"/><path class="cls-11" d="M217.54,83.68V82.62a3.94,3.94,0,0,1-3.06,1.28,3,3,0,0,1-3.15-3,3,3,0,0,1,3.15-3,3.91,3.91,0,0,1,3.06,1.28V77.38a2.13,2.13,0,0,0-2.4-2.07,3.52,3.52,0,0,0-2.84,1.32l-.54-.67a4.37,4.37,0,0,1,3.47-1.51c1.83,0,3.28.88,3.28,2.89v6.34Zm0-1.77v-2a3.32,3.32,0,0,0-2.72-1.25,2.24,2.24,0,1,0,0,4.46A3.36,3.36,0,0,0,217.54,81.91Z"/><path class="cls-11" d="M221.62,83.68v-9h1v1.55a3.85,3.85,0,0,1,3-1.73v1.06a2,2,0,0,0-.49,0,3.42,3.42,0,0,0-2.55,1.61v6.56Z"/><path class="cls-11" d="M227.12,79.17a4.47,4.47,0,0,1,4.33-4.72c2.74,0,4.25,2.16,4.25,4.77v.26h-7.54a3.52,3.52,0,0,0,3.53,3.58,3.94,3.94,0,0,0,2.94-1.25l.51.64a4.67,4.67,0,0,1-3.53,1.45A4.43,4.43,0,0,1,227.12,79.17Zm4.31-3.88a3.39,3.39,0,0,0-3.27,3.43h6.55A3.3,3.3,0,0,0,231.43,75.29Z"/><path class="cls-11" d="M244.17,82.22v4.89h-1V74.67h1v1.42a3.89,3.89,0,0,1,3.14-1.64c2.4,0,4,1.83,4,4.72s-1.62,4.73-4,4.73A3.85,3.85,0,0,1,244.17,82.22Zm6.12-3c0-2.19-1.14-3.84-3.15-3.84a3.65,3.65,0,0,0-3,1.6v4.46a3.71,3.71,0,0,0,3,1.64C249.15,83,250.29,81.35,250.29,79.17Z"/><path class="cls-11" d="M253.36,79.17c0-2.63,1.68-4.72,4.31-4.72S262,76.54,262,79.17s-1.68,4.73-4.35,4.73S253.36,81.8,253.36,79.17Zm7.61,0c0-2-1.17-3.84-3.3-3.84s-3.28,1.84-3.28,3.84S255.58,83,257.67,83,261,81.18,261,79.17Z"/><path class="cls-11" d="M264.6,83.68v-9h1v1.55a3.86,3.86,0,0,1,3-1.73v1.06a1.91,1.91,0,0,0-.48,0,3.42,3.42,0,0,0-2.56,1.61v6.56Z"/><path class="cls-11" d="M270.79,81.94V75.53H269.3v-.86h1.49V72.21h1v2.46h1.83v.86h-1.83V81.8c0,.72.3,1.23.93,1.23a1.44,1.44,0,0,0,1-.43l.37.74a2,2,0,0,1-1.53.56C271.37,83.9,270.79,83.18,270.79,81.94Z"/><path class="cls-11" d="M281.55,83.68V82.62a3.94,3.94,0,0,1-3.06,1.28,3,3,0,0,1-3.15-3,3,3,0,0,1,3.15-3,3.91,3.91,0,0,1,3.06,1.28V77.38a2.13,2.13,0,0,0-2.41-2.07,3.52,3.52,0,0,0-2.83,1.32l-.54-.67a4.35,4.35,0,0,1,3.47-1.51c1.82,0,3.28.88,3.28,2.89v6.34Zm0-1.77v-2a3.33,3.33,0,0,0-2.72-1.25,2.24,2.24,0,1,0,0,4.46A3.37,3.37,0,0,0,281.55,81.91Z"/><path class="cls-11" d="M285.63,83.68V71.24h1V83.68Z"/></g></g></svg>